# xmcd
#
# Track frame offsets:
#	150
#	3433
#	21706
#	41027
#	57310
#	77830
#	103923
#	114859
#	133336
#	153324
#	175158
#	190030
#	206191
#	222784
#	243346
#	276992
#
# Disc length: 4283 seconds
#
# Revision: 0
# Processed by: cddbd v1.5.2PL0 Copyright (c) Steve Scherf et al.
# Submitted via: EasyCDDAExtractor 2010.6.0.0
#
DISCID=e910b910
DTITLE=Various Artist - Sulle Rive del Tango - L'Incontro
DYEAR=1900
DGENRE=Tango
TTITLE0=La Kinky Beat - No es lo mismo
TTITLE1=Soha - Mil Pasos (Feat. Antoine Essertier)
TTITLE2=Gotan Project - Mi Confesiòn (Feat. Koxmoz)
TTITLE3=Ginkobiloba - De l'autre coté
TTITLE4=Cirque du Soleil - Querer
TTITLE5=Kantango featuring Lura - Canta Um Tango
TTITLE6=Bajofondo Tango Club - Leonel, El Feo
TTITLE7=Rupa and the April Fishes - Maintenant
TTITLE8=Vinicio Capossela - Scivola vai via
TTITLE9=Kevin Johansen - Sur o No Sur
TTITLE10=Amparo Velasco "La Negra" - Antes
TTITLE11=Natacha Atlas - Man's world
TTITLE12=Kantango - Milonga #17
TTITLE13=Sineterra - Ariele e Calibano
TTITLE14=Istanbul Academia Project - Oblivion
TTITLE15=Dario Deidda - Mutual
EXTD=
EXTT0=
EXTT1=
EXTT2=
EXTT3=
EXTT4=
EXTT5=
EXTT6=
EXTT7=
EXTT8=
EXTT9=
EXTT10=
EXTT11=
EXTT12=
EXTT13=
EXTT14=
EXTT15=
PLAYORDER=
